PathFileType	4	(X/Y/Z)	/Users/niels/Desktop/University/Third Semester/Perception and Action/Exam/Gymnastics Motion Tracking/Code for Gym Tracking/Analyzed Data/Webcam_Backflip/id2001_2_trajectory_Sports2D/id2001_2_trajectory_Sports2D_px_person00.trc
DataRate	CameraRate	NumFrames	NumMarkers	Units	OrigDataRate	OrigDataStartFrame	OrigNumFrames
29.887218045112782	29.887218045112782	11	22	m	29.887218045112782	133	266
Frame#	Time	Hip			RHip			RKnee			RAnkle			RBigToe			RSmallToe			RHeel			LHip			LKnee			LAnkle			LBigToe			LSmallToe			LHeel			Neck			Head			Nose			RShoulder			RElbow			RWrist			LShoulder			LElbow			LWrist		
		X1	Y1	Z1	X2	Y2	Z2	X3	Y3	Z3	X4	Y4	Z4	X5	Y5	Z5	X6	Y6	Z6	X7	Y7	Z7	X8	Y8	Z8	X9	Y9	Z9	X10	Y10	Z10	X11	Y11	Z11	X12	Y12	Z12	X13	Y13	Z13	X14	Y14	Z14	X15	Y15	Z15	X16	Y16	Z16	X17	Y17	Z17	X18	Y18	Z18	X19	Y19	Z19	X20	Y20	Z20	X21	Y21	Z21	X22	Y22	Z22
133	4.450062893081761	0.9054377773151863	-0.7576555295888172	0.0	0.8787534257507219	-0.7597152514046409	0.0	0.9216409805531354	-1.0593507936376387	0.0	0.594376936647802	-1.0278669804674727	0.0	0.5787701575293022	-1.027755474270868	0.0	0.5727251665421493	-1.0405397307844284	0.0	0.5735474707087554	-0.9779670047631217	0.0	0.9708918351416486	-0.773708226814223	0.0	0.9954830698635186	-1.0525347223267298	0.0	0.7332950068270856	-1.0244547592388764	0.0	0.6878119360502343	-1.0321570740197383	0.0	0.5439361972634312	-1.0099909866210446	0.0	0.5917814832375488	-1.0147707170347278	0.0	1.2564613118768244	-0.4016268244298782	0.0	1.481831928317023	-0.3455220639569817	0.0	1.393469481851693	-0.43014223886468206	0.0	1.1961418027684325	-0.39545089622182833	0.0	0.9641483060296042	-0.4169380701222017	0.0	0.9352478731220631	-0.6765886573583283	0.0	1.2144278752505138	-0.4219836965655391	0.0	0.9769943379439416	-0.4181344023473118	0.0	1.0400671542908355	-0.7038040535221028	0.0
134	4.483522012578617	0.9036846540369864	-0.7580818132281727	0.0	0.8759374999156497	-0.7597203085963287	0.0	0.921645324726176	-1.0597400661166196	0.0	0.5955694274063411	-1.0297690151406729	0.0	0.5783790625354828	-1.0287040554895734	0.0	0.5727260090316211	-1.040540290781685	0.0	0.5732703705554055	-0.9779617472011684	0.0	0.969282130632905	-0.773474945771667	0.0	0.9929136449764341	-1.0524896808842457	0.0	0.725857254804983	-1.0267482027778152	0.0	0.6878120065822408	-1.0321572624976003	0.0	0.5439335866511703	-1.0099906900890123	0.0	0.5864090494152256	-1.0177933799052872	0.0	1.2619763150565195	-0.41170506984487465	0.0	1.4900820933450414	-0.35832668091761183	0.0	1.4004039659233365	-0.444386400701077	0.0	1.2027220923962945	-0.4048823766156875	0.0	0.9695494574718065	-0.4236477210181825	0.0	0.9360760571952762	-0.6824246465055245	0.0	1.220221808882648	-0.42933638557358633	0.0	0.9806450618690966	-0.4265753925685337	0.0	1.0353840053714367	-0.7192025195064854	0.0
135	4.516981132075473	0.9022602405641076	-0.7582149169075019	0.0	0.8732280942045997	-0.7597767394570824	0.0	0.9223876856361369	-1.0600495167488138	0.0	0.6005570766061641	-1.0302329668586818	0.0	0.5772247301730282	-1.0305168774583982	0.0	0.5727233051893925	-1.0405395678838523	0.0	0.572238545538484	-0.9775993237376815	0.0	0.9670358688894112	-0.7731798017710635	0.0	0.9885339016186976	-1.0526030389392236	0.0	0.7201151520800931	-1.0275491778924317	0.0	0.6878121808013946	-1.0321576955914031	0.0	0.5439298204152847	-1.009990312192891	0.0	0.5826403708159588	-1.0186470771634681	0.0	1.2674563781780794	-0.4223373546661937	0.0	1.496659715379312	-0.3697648761688277	0.0	1.407317209890799	-0.4583878895386446	0.0	1.2088525465908406	-0.41455005386020416	0.0	0.9748551026494563	-0.4305846347102702	0.0	0.936658041556262	-0.6877773370957554	0.0	1.227049515804904	-0.4384690422243768	0.0	0.9909323294221475	-0.43659862146581047	0.0	1.0357131893337248	-0.7250655272524625	0.0
136	4.5504402515723275	0.9006271138567286	-0.7581092190721553	0.0	0.8705424872225451	-0.7597807705624054	0.0	0.924144694127596	-1.0600985702640733	0.0	0.6078339191836818	-1.0294503890137296	0.0	0.574975987934146	-1.033238375997693	0.0	0.5727137777833963	-1.0405362097200488	0.0	0.5700528569966145	-0.9766085683908969	0.0	0.9636787637990667	-0.772421327843373	0.0	0.9834050455144523	-1.052571419450628	0.0	0.7174335136110396	-1.0271191269968916	0.0	0.6878124923241453	-1.0321584381755202	0.0	0.5439257164536428	-1.0099899842002986	0.0	0.5817833503239211	-1.0163239095522052	0.0	1.2729458310305621	-0.433456111569597	0.0	1.5021866633026	-0.3806620603821125	0.0	1.4141976722902732	-0.4722342733912186	0.0	1.2146867480945942	-0.4242594230842401	0.0	0.9802639221953878	-0.4375550433213277	0.0	0.9369740639670909	-0.6927087224214553	0.0	1.234243218095296	-0.44882957264172385	0.0	1.0029217711094218	-0.44739459687111255	0.0	1.0391209171420424	-0.7264594876466518	0.0
137	4.583899371069183	0.8985483772093641	-0.7579273888799309	0.0	0.8678959293231444	-0.7597534866720956	0.0	0.9267648389251519	-1.0597400898763156	0.0	0.6135733657842538	-1.0282595196035191	0.0	0.5714870203904169	-1.0365208672355768	0.0	0.5726939479254145	-1.0405286627097339	0.0	0.5665006072528562	-0.9747432883526744	0.0	0.9591827396405218	-0.7710606520165926	0.0	0.9792946195825436	-1.052164659190895	0.0	0.718520821241733	-1.0258657360863166	0.0	0.687812932839098	-1.0321594451129121	0.0	0.5439234768492941	-1.009989991484629	0.0	0.5849966022514871	-1.0103804248384842	0.0	1.2784341670891597	-0.44485059682331146	0.0	1.507294653776127	-0.3917240648155224	0.0	1.4209690785449287	-0.48610271184203485	0.0	1.2203325823198392	-0.43403567983195285	0.0	0.985839011314375	-0.444495417160049	0.0	0.9370368589668818	-0.6973864425138112	0.0	1.2413667127132881	-0.4595537845198324	0.0	1.0141153924567237	-0.45814941155341804	0.0	1.0440721533047883	-0.726552467299465	0.0
138	4.617358490566039	0.8961637356738955	-0.7579037244025092	0.0	0.8653963740070298	-0.7598302948209698	0.0	0.9296202027922854	-1.0589970762422891	0.0	0.6142942939494273	-1.027511530620109	0.0	0.5669077638043746	-1.0397428204955121	0.0	0.5726621221400842	-1.0405159013205743	0.0	0.5618963231770182	-0.9719297854413299	0.0	0.953920126403835	-0.7693221389697924	0.0	0.9773986704605986	-1.0514011993137327	0.0	0.7227885964761128	-1.0240138793360736	0.0	0.6878133978984682	-1.0321604342701516	0.0	0.543927217478073	-1.0099908062063785	0.0	0.5926440188284239	-1.0012721000227514	0.0	1.2838952138696365	-0.45629357885385335	0.0	1.512388121502976	-0.4034582743541856	0.0	1.4274957207756505	-0.5001589003006706	0.0	1.2258638698643463	-0.4441468397983665	0.0	0.9914623411843679	-0.45145553509844133	0.0	0.9368275285103833	-0.7020854620535937	0.0	1.2481983772523977	-0.46978662457816506	0.0	1.0236848575407254	-0.4681883003512661	0.0	1.047889956591493	-0.7265666211400285	0.0
139	4.6508176100628935	0.8937499884107244	-0.7582596760258457	0.0	0.8630869229201048	-0.7601333688340284	0.0	0.9319130002349715	-1.0580988350537908	0.0	0.6112083143652302	-1.0271372440264912	0.0	0.561615347198825	-1.0423821062884175	0.0	0.5726220389761497	-1.0404988495244758	0.0	0.557363261346829	-0.9683577129831449	0.0	0.9483751651668547	-0.7676088106166105	0.0	0.97783171650483	-1.050539912903235	0.0	0.7281410946478998	-1.0213011033115897	0.0	0.6878136184374402	-1.0321607338088339	0.0	0.5439430000480544	-1.0099930443923453	0.0	0.6039125081288161	-0.9902023104269321	0.0	1.2893010191010437	-0.46766837703330333	0.0	1.517677982412436	-0.41627259149082374	0.0	1.4335316013030956	-0.5144594058259294	0.0	1.2313527180363857	-0.45481592766371154	0.0	0.9969559246493996	-0.4584856856130537	0.0	0.9363042609247801	-0.7070073382222017	0.0	1.2546206268632456	-0.47918648188423707	0.0	1.0316631990262706	-0.47726572281673485	0.0	1.0486536497819983	-0.7268698089679602	0.0
140	4.684276729559749	0.8913980146875928	-0.7590731943915461	0.0	0.8608897392135328	-0.7607042342327989	0.0	0.9331481695865617	-1.057422220149981	0.0	0.6104812363668128	-1.0258381984710718	0.0	0.5560548941605521	-1.044192737294843	0.0	0.5725881522625533	-1.0404825499719905	0.0	0.5548484402586351	-0.9644214096525434	0.0	0.9428210567877781	-0.7661530810727538	0.0	0.9800883000924975	-1.049934589851218	0.0	0.731669449512261	-1.0169161066006887	0.0	0.687813102481043	-1.032159166977773	0.0	0.5439776378524032	-1.0099972679253448	0.0	0.617126024748998	-0.9786905998607968	0.0	1.2946070517472683	-0.4789570803496189	0.0	1.5233411709399525	-0.4305857896113019	0.0	1.4387883852516758	-0.5290440420839192	0.0	1.2368765681223162	-0.4660000722883422	0.0	1.0021635497257129	-0.46556508303306154	0.0	0.935449448821288	-0.71209608574937	0.0	1.2605146464763832	-0.4880266976494186	0.0	1.0383520570618832	-0.48555977447340276	0.0	1.0471828447812914	-0.7278855772003064	0.0
141	4.717735849056605	0.8889970885337399	-0.760150892368893	0.0	0.8586326215088537	-0.7614576562554562	0.0	0.9332615863782532	-1.057297030057571	0.0	0.6177069273755794	-1.0217929328695887	0.0	0.5506230141916604	-1.0450967190225264	0.0	0.5725914257745863	-1.0404787266471784	0.0	0.5567986713212756	-0.9605812797591953	0.0	0.9372724486692763	-0.7648165571885457	0.0	0.983555870974695	-1.0498498122638018	0.0	0.7314314844998631	-1.0099940300311392	0.0	0.6878111396323577	-1.0321541030534924	0.0	0.5440353114785468	-1.010003540260325	0.0	0.63041613090157	-0.968208459375758	0.0	1.299759754163807	-0.49019616069727984	0.0	1.5295652259384978	-0.4467433259620237	0.0	1.4430590640257899	-0.5439329238153309	0.0	1.2424463085951816	-0.47747437082626426	0.0	1.00694249979644	-0.47262692484334123	0.0	0.934323919750267	-0.7170460146160167	0.0	1.265763153978759	-0.49675853558842553	0.0	1.04395226944655	-0.49326183167015347	0.0	1.0456135136563027	-0.7299785972597169	0.0
142	4.75119496855346	0.8864784646179495	-0.7610770289893245	0.0	0.856084729182995	-0.7622010716143834	0.0	0.9323250676586862	-1.0577803475970307	0.0	0.6323996344363233	-1.0138302106183925	0.0	0.5455982972762823	-1.0450817528918552	0.0	0.5726825791862944	-1.040507625679608	0.0	0.5653731218708564	-0.9572346628949671	0.0	0.9317215847447703	-0.7632887700172626	0.0	0.987663718933989	-1.0503470417059213	0.0	0.7277521752695042	-1.0003410495078977	0.0	0.6878069547130466	-1.0321438774737521	0.0	0.5441110912865426	-1.0100106759487564	0.0	0.6422966610989408	-0.9598743563959325	0.0	1.3047078630921727	-0.5014468665026266	0.0	1.536451114918073	-0.4647661817224412	0.0	1.4462731570267202	-0.559026390481401	0.0	1.247871074493599	-0.4890171053507418	0.0	1.0112129020594067	-0.47960536112732777	0.0	0.9331064033122686	-0.7214676115764408	0.0	1.270332238388045	-0.505678590002526	0.0	1.0485128104768158	-0.5003244758857589	0.0	1.045016569086508	-0.7330377625756761	0.0
143	4.784654088050315	0.8839144909230597	-0.7614873373253144	0.0	0.8531788316466895	-0.7628162693710102	0.0	0.9303767081482952	-1.0586606356570465	0.0	0.6486183641503389	-1.0024390141365727	0.0	0.5410840029869276	-1.0442167512308058	0.0	0.5729270381727776	-1.040596904295755	0.0	0.5812708497092682	-0.9546124081524925	0.0	0.9262844801523237	-0.7614864858931104	0.0	0.9914924684910519	-1.051270813867864	0.0	0.722274460879412	-0.9887061087398511	0.0	0.687800122296445	-1.0321278317170979	0.0	0.5441812005521445	-1.0100152389586334	0.0	0.6520706555096806	-0.9541310455480141	0.0	1.3094124536379088	-0.5127592874467852	0.0	1.5438614337819656	-0.48419270631727546	0.0	1.4485364224035309	-0.574129968739604	0.0	1.2527721759077741	-0.5004737739741292	0.0	1.0150536492429931	-0.4864340438067405	0.0	0.9319999508690591	-0.7250824919001806	0.0	1.2743212125764667	-0.5150288665069954	0.0	1.052043520468171	-0.5066693809565576	0.0	1.0448185934846346	-0.7365101787836976	0.0
